<svg width="1860" height="1069" viewBox="0 0 1860 1069" fill="none" xmlns="http://www.w3.org/2000/svg">
<path d="M38.9786 61.349C33.6422 30.1206 58.3242 1.86522 89.9865 2.95654L1778.78 61.1653C1816.02 62.4487 1838.82 102.542 1820.89 135.201L1694.91 364.629C1689.03 375.34 1687.27 387.835 1689.98 399.752L1826.46 1001.58C1833.94 1034.59 1807.15 1065.35 1773.42 1062.46L679.184 968.616C676.78 968.41 674.364 968.378 671.956 968.521L88.4589 1003.07C49.5964 1005.37 23.1288 964.333 41.2519 929.879L143.671 735.164C148.787 725.438 150.556 714.298 148.705 703.466L38.9786 61.349Z" fill="url(#paint0_linear_3194_2432)"/>
<defs>
<linearGradient id="paint0_linear_3194_2432" x1="640.677" y1="384.54" x2="1790.82" y2="585.04" gradientUnits="userSpaceOnUse">
<stop stop-color="#B7E94E"/>
<stop offset="1" stop-color="#FFEE02" stop-opacity="0.5"/>
</linearGradient>
</defs>
</svg>
