<svg width="375" height="1260" viewBox="0 0 375 1260" fill="none" xmlns="http://www.w3.org/2000/svg">
<path d="M-92.9998 1185.78C-92.9998 1210.05 -75.5624 1230.82 -51.6528 1235.02L82.7189 1258.63C88.0751 1259.57 93.549 1259.63 98.9249 1258.81L292.327 1229.26C298.816 1228.27 305.436 1228.56 311.809 1230.13L406.071 1253.29C437.579 1261.03 468 1237.17 468 1204.73L468 74.0863C468 41.1775 436.757 17.243 404.983 25.8104L340.324 43.2448C331.041 45.7477 321.233 45.5212 312.076 42.5924L188.663 3.12231C182.613 1.18774 176.251 0.423218 169.916 0.869751L-42.051 15.8101C-47.7032 16.2085 -53.2831 14.351 -57.5688 10.6443C-71.4438 -1.35608 -93 8.50037 -93 26.845L-92.9998 1185.78Z" fill="url(#paint0_linear_3325_10880)"/>
<defs>
<linearGradient id="paint0_linear_3325_10880" x1="100.236" y1="805.349" x2="457.001" y2="789.809" gradientUnits="userSpaceOnUse">
<stop stop-color="#B7E94E"/>
<stop offset="1" stop-color="#FFEE02" stop-opacity="0.5"/>
</linearGradient>
</defs>
</svg>
