<svg width="23" height="24" viewBox="0 0 23 24"  xmlns="http://www.w3.org/2000/svg">
<path fill-rule="evenodd" clip-rule="evenodd" d="M2.55975 2.13794H0.103516V0.137939H2.55975C4.2166 0.137939 5.55975 1.48109 5.55975 3.13794V4.6207H19.8277C21.4845 4.6207 22.8277 5.96384 22.8277 7.6207V10.8142C22.8277 12.1933 21.8874 13.3947 20.5487 13.7262L7.9733 16.8401C9.4115 17.3194 10.4484 18.6765 10.4484 20.2758C10.4484 22.2755 8.82737 23.8965 6.82772 23.8965C4.82807 23.8965 3.20703 22.2755 3.20703 20.2758C3.20703 18.7454 4.15655 17.4368 5.49861 16.9069C4.38424 16.4832 3.55975 15.408 3.55975 14.0995V3.13794C3.55975 2.58565 3.11203 2.13794 2.55975 2.13794ZM5.55975 6.6207V14.0995C5.55975 14.7492 6.16951 15.2264 6.80011 15.0702L20.068 11.7848C20.5142 11.6743 20.8277 11.2739 20.8277 10.8142V7.6207C20.8277 7.06841 20.3799 6.6207 19.8277 6.6207H5.55975ZM6.82772 21.8965C7.7228 21.8965 8.44841 21.1709 8.44841 20.2758C8.44841 19.3808 7.7228 18.6552 6.82772 18.6552C5.93264 18.6552 5.20703 19.3808 5.20703 20.2758C5.20703 21.1709 5.93264 21.8965 6.82772 21.8965ZM20.862 20.2758C20.862 21.1709 20.1364 21.8965 19.2413 21.8965C18.3462 21.8965 17.6206 21.1709 17.6206 20.2758C17.6206 19.3808 18.3462 18.6552 19.2413 18.6552C20.1364 18.6552 20.862 19.3808 20.862 20.2758ZM22.862 20.2758C22.862 22.2755 21.2409 23.8965 19.2413 23.8965C17.2416 23.8965 15.6206 22.2755 15.6206 20.2758C15.6206 18.2762 17.2416 16.6552 19.2413 16.6552C21.2409 16.6552 22.862 18.2762 22.862 20.2758Z" />
</svg>
