<svg width="35" height="35" viewBox="0 0 35 35" fill="none" xmlns="http://www.w3.org/2000/svg">
<path d="M5.12695 24.7461H1.02539C0.458623 24.7461 0 25.2047 0 25.7715V33.9746C0 34.5414 0.458623 35 1.02539 35C1.59216 35 2.05078 34.5414 2.05078 33.9746V30.8984H3.07617C3.64294 30.8984 4.10156 30.4398 4.10156 29.873C4.10156 29.3063 3.64294 28.8477 3.07617 28.8477H2.05078V26.7969H5.12695C5.69372 26.7969 6.15234 26.3383 6.15234 25.7715C6.15234 25.2047 5.69372 24.7461 5.12695 24.7461Z" fill="#FFA333"/>
<path d="M19.4824 26.7969C20.0492 26.7969 20.5078 26.3383 20.5078 25.7715C20.5078 25.2047 20.0492 24.7461 19.4824 24.7461H15.3809C14.8141 24.7461 14.3555 25.2047 14.3555 25.7715V33.9746C14.3555 34.5414 14.8141 35 15.3809 35H19.4824C20.0492 35 20.5078 34.5414 20.5078 33.9746C20.5078 33.4078 20.0492 32.9492 19.4824 32.9492H16.4062V30.8984H17.4316C17.9984 30.8984 18.457 30.4398 18.457 29.873C18.457 29.3063 17.9984 28.8477 17.4316 28.8477H16.4062V26.7969H19.4824Z" fill="#FFA333"/>
<path d="M14.3555 15.5176C14.3555 13.8213 12.9756 12.4414 11.2793 12.4414C9.58303 12.4414 8.20312 13.8213 8.20312 15.5176V19.6191C8.20312 21.3154 9.58303 22.6953 11.2793 22.6953C12.9756 22.6953 14.3555 21.3154 14.3555 19.6191V15.5176ZM12.3047 19.6191C12.3047 20.1849 11.845 20.6445 11.2793 20.6445C10.7136 20.6445 10.2539 20.1849 10.2539 19.6191V15.5176C10.2539 14.9518 10.7136 14.4922 11.2793 14.4922C11.845 14.4922 12.3047 14.9518 12.3047 15.5176V19.6191Z" fill="#FFA333"/>
<path d="M16.4062 15.5176V19.6191C16.4062 21.3154 17.7862 22.6953 19.4824 22.6953C21.1787 22.6953 22.5586 21.3154 22.5586 19.6191V15.5176C22.5586 13.8213 21.1787 12.4414 19.4824 12.4414C17.7862 12.4414 16.4062 13.8213 16.4062 15.5176ZM20.5078 15.5176V19.6191C20.5078 20.1849 20.0482 20.6445 19.4824 20.6445C18.9167 20.6445 18.457 20.1849 18.457 19.6191V15.5176C18.457 14.9518 18.9167 14.4922 19.4824 14.4922C20.0482 14.4922 20.5078 14.9518 20.5078 15.5176Z" fill="#FFA333"/>
<path d="M13.3301 27.8223C13.3301 26.126 11.9502 24.7461 10.2539 24.7461H8.20312C7.63636 24.7461 7.17773 25.2047 7.17773 25.7715C7.17773 25.9941 7.17773 34.2792 7.17773 33.9746C7.17773 34.5414 7.63636 35 8.20312 35C8.76989 35 9.22852 34.5414 9.22852 33.9746V30.8984H9.62008L11.3874 34.4332C11.6398 34.9364 12.252 35.1457 12.7633 34.8919C13.27 34.6385 13.4753 34.0227 13.2219 33.516L11.7191 30.5102C12.6737 29.9875 13.3301 28.9853 13.3301 27.8223ZM9.22852 28.8477V26.7969H10.2539C10.8196 26.7969 11.2793 27.2565 11.2793 27.8223C11.2793 28.388 10.8196 28.8477 10.2539 28.8477H9.22852Z" fill="#FFA333"/>
<path d="M24.6094 28.8477C24.0436 28.8477 23.584 28.388 23.584 27.8223C23.585 26.9832 24.7475 26.5065 25.3334 27.0963C25.7329 27.4978 26.3818 27.4978 26.7833 27.0983C27.1849 26.6987 27.1849 26.0488 26.7853 25.6483C26.2056 25.0666 25.4325 24.7461 24.6094 24.7461C22.9131 24.7461 21.5332 26.126 21.5332 27.8223C21.5332 29.5185 22.9131 30.8984 24.6094 30.8984C25.1751 30.8984 25.6348 31.3581 25.6348 31.9238C25.6348 32.764 24.4752 33.2426 23.8854 32.6498C23.4858 32.2483 22.837 32.2483 22.4354 32.6478C22.0339 33.0474 22.0339 33.6973 22.4334 34.0978C23.0133 34.6795 23.7863 35 24.6094 35C26.3056 35 27.6855 33.6201 27.6855 31.9238C27.6855 30.2276 26.3057 28.8477 24.6094 28.8477Z" fill="#FFA333"/>
<path d="M33.9746 24.7461C33.4078 24.7461 32.9492 25.2047 32.9492 25.7715V28.8477H30.7617V25.7715C30.7617 25.2047 30.3031 24.7461 29.7363 24.7461C29.1696 24.7461 28.7109 25.2047 28.7109 25.7715V33.9746C28.7109 34.5414 29.1696 35 29.7363 35C30.3031 35 30.7617 34.5414 30.7617 33.9746V30.8984H32.9492V33.9746C32.9492 34.5414 33.4078 35 33.9746 35C34.5414 35 35 34.5414 35 33.9746V25.7715C35 25.2047 34.5414 24.7461 33.9746 24.7461Z" fill="#FFA333"/>
<path d="M5.12695 12.4414C4.56019 12.4414 4.10156 12.9 4.10156 13.4668C4.10156 14.0325 3.64191 14.4922 3.07617 14.4922C2.5094 14.4922 2.05078 14.9508 2.05078 15.5176C2.05078 16.0843 2.5094 16.543 3.07617 16.543C3.43738 16.543 3.77925 16.469 4.10156 16.3541V21.6699C4.10156 22.2367 4.56019 22.6953 5.12695 22.6953C5.69372 22.6953 6.15234 22.2367 6.15234 21.6699V13.4668C6.15234 12.9 5.69372 12.4414 5.12695 12.4414Z" fill="#FFA333"/>
<path d="M25.0202 22.4903C25.4741 22.8307 26.1167 22.738 26.4551 22.285L32.6074 14.0818C32.9479 13.6292 32.8558 12.9864 32.4022 12.6469C31.9496 12.3094 31.3067 12.3976 30.9672 12.8522L24.8149 21.0553C24.4745 21.5079 24.5665 22.1508 25.0202 22.4903Z" fill="#FFA333"/>
<path d="M25.6348 14.4922C26.2011 14.4922 26.6602 14.0331 26.6602 13.4668C26.6602 12.9005 26.2011 12.4414 25.6348 12.4414C25.0685 12.4414 24.6094 12.9005 24.6094 13.4668C24.6094 14.0331 25.0685 14.4922 25.6348 14.4922Z" fill="#FFA333"/>
<path d="M31.7871 22.6953C32.3534 22.6953 32.8125 22.2362 32.8125 21.6699C32.8125 21.1036 32.3534 20.6445 31.7871 20.6445C31.2208 20.6445 30.7617 21.1036 30.7617 21.6699C30.7617 22.2362 31.2208 22.6953 31.7871 22.6953Z" fill="#FFA333"/>
<path d="M16.4062 8.20312V9.22852C16.4062 9.79528 16.8649 10.2539 17.4316 10.2539C17.9984 10.2539 18.457 9.79528 18.457 9.22852V8.20312C21.8496 8.20312 24.6094 5.44339 24.6094 2.05078V1.02539C24.6094 0.458623 24.1508 0 23.584 0H22.5586C20.4183 0 18.5341 1.10113 17.4316 2.76391C16.3291 1.10113 14.445 0 12.3047 0H11.2793C10.7125 0 10.2539 0.458623 10.2539 1.02539V2.05078C10.2539 5.44339 13.0136 8.20312 16.4062 8.20312Z" fill="#FFA333"/>
</svg>
