<svg width="29" height="31" viewBox="0 0 29 31" fill="none" xmlns="http://www.w3.org/2000/svg">
<path d="M14.2292 0.1875C11.6479 0.1875 9.37292 1.89375 8.64375 4.37292C7.87083 4.02292 7.05417 3.83333 6.20833 3.83333C4.66124 3.83333 3.17751 4.44791 2.08354 5.54188C0.989581 6.63584 0.375 8.11957 0.375 9.66667C0.378455 10.9585 0.809575 12.2129 1.60105 13.2339C2.39252 14.2549 3.4998 14.985 4.75 15.3104V25.7083H23.7083V15.3104C26.275 14.6396 28.0833 12.3208 28.0833 9.66667C28.0833 8.11957 27.4688 6.63584 26.3748 5.54188C25.2808 4.44791 23.7971 3.83333 22.25 3.83333C21.4042 3.83333 20.5875 4.02292 19.8146 4.37292C19.0854 1.89375 16.8104 0.1875 14.2292 0.1875ZM13.5 13.3125H14.9583V23.5208H13.5V13.3125ZM9.125 16.2292H10.5833V23.5208H9.125V16.2292ZM17.875 16.2292H19.3333V23.5208H17.875V16.2292ZM4.75 27.1667V28.625C4.75 29.0118 4.90365 29.3827 5.17714 29.6562C5.45063 29.9297 5.82156 30.0833 6.20833 30.0833H22.25C22.6368 30.0833 23.0077 29.9297 23.2812 29.6562C23.5547 29.3827 23.7083 29.0118 23.7083 28.625V27.1667H4.75Z" fill="#FFA333"/>
</svg>
