<svg width="35" height="35" viewBox="0 0 35 35" fill="none" xmlns="http://www.w3.org/2000/svg">
<path d="M0.00830078 35H14.4254V26.7324H0.00830078V35ZM3.16145 28.8734H11.3405V30.9232H3.16145V28.8734Z" fill="#FFA333"/>
<path d="M0.00830078 24.6827H14.4254V16.5518H0.00830078V24.6827ZM3.16145 18.7328H11.3405V20.7827H3.16145V18.7328Z" fill="#FFA333"/>
<path d="M16.4751 35.0001H34.9918V16.5518H16.4751V35.0001ZM28.774 18.7328H30.8239V20.8332H28.774V18.7328ZM24.6744 18.7328H26.7242V20.8332H24.6744V18.7328ZM20.5747 18.7328H22.6246V20.8332H20.5747V18.7328ZM20.5747 22.667H30.8239V30.9005H20.5747V22.667Z" fill="#FFA333"/>
<path d="M28.774 4.72575V0H22.6246V4.72917L16.4751 8.82875V12.452H34.9918V8.82533L28.774 4.72575Z" fill="#FFA333"/>
</svg>
