<svg width="25" height="35" viewBox="0 0 25 35" fill="none" xmlns="http://www.w3.org/2000/svg">
<path d="M5.14355 4.43643H20.175V1.36547C20.175 0.587462 19.538 0 18.8127 0C18.6715 0 18.5271 0.0222405 18.3832 0.0697232L5.14355 4.43643Z" fill="#FFA333"/>
<path d="M22.9042 6.48291H2.09638C1.3428 6.48291 0.731934 7.09377 0.731934 7.84736V25.9487V33.6354C0.731934 34.389 1.3428 34.9998 2.09638 34.9998H22.9042C23.6578 34.9998 24.2686 34.389 24.2686 33.6354V7.84736C24.2686 7.09384 23.6577 6.48291 22.9042 6.48291ZM5.67805 18.785H5.97447C6.4156 15.9608 8.65267 13.7237 11.4769 13.2826V12.7698C11.4769 12.2046 11.9351 11.7465 12.5003 11.7465C13.0654 11.7465 13.5236 12.2046 13.5236 12.7698V13.2826C16.3479 13.7237 18.585 15.9608 19.0261 18.785H19.3225C19.8877 18.785 20.3458 19.2432 20.3458 19.8084C20.3458 20.3735 19.8877 20.8317 19.3225 20.8317H5.67805C5.11289 20.8317 4.65471 20.3735 4.65471 19.8084C4.65471 19.2432 5.11283 18.785 5.67805 18.785ZM12.0102 24.6197C12.0102 25.1848 11.5521 25.643 10.9869 25.643H6.0749C5.50974 25.643 5.05156 25.1848 5.05156 24.6197C5.05156 24.0545 5.50974 23.5963 6.0749 23.5963H10.9869C11.5521 23.5963 12.0102 24.0545 12.0102 24.6197ZM19.0667 29.7363H5.93388C5.36873 29.7363 4.91055 29.2782 4.91055 28.713C4.91055 28.1478 5.36873 27.6897 5.93388 27.6897H19.0667C19.6318 27.6897 20.09 28.1478 20.09 28.713C20.09 29.2782 19.6318 29.7363 19.0667 29.7363Z" fill="#FFA333"/>
<path d="M16.9425 18.7851C16.4768 16.7627 14.6616 15.25 12.4998 15.25C10.3381 15.25 8.52288 16.7628 8.05713 18.7851H16.9425Z" fill="#FFA333"/>
</svg>
