<svg width="16" height="21" viewBox="0 0 16 21"  xmlns="http://www.w3.org/2000/svg">
<path fill-rule="evenodd" clip-rule="evenodd" d="M4.08384 1.1C4.24584 0.735 4.60684 0.5 5.00684 0.5H12.9838C13.7338 0.5 14.2228 1.29 13.8868 1.962L11.6178 6.5H14.9758C15.8758 6.5 16.3258 7.588 15.6898 8.224L3.73684 20.177C2.98284 20.931 1.72684 20.155 2.06484 19.144L4.61284 11.5H1.01484C0.846589 11.5 0.681002 11.458 0.533121 11.3777C0.38524 11.2974 0.259752 11.1815 0.168055 11.0404C0.0763581 10.8994 0.0213569 10.7376 0.00804778 10.5699C-0.00526138 10.4022 0.0235431 10.2338 0.0918448 10.08L4.08384 1.1Z" />
</svg>
