<svg width="177" height="61" viewBox="0 0 177 61" fill="none" xmlns="http://www.w3.org/2000/svg">
<g clip-path="url(#clip0_5007_347)">
<path d="M26.7246 0H153.659C166.543 0 177 10.4281 177 23.2756V56.391C177 58.4021 175.362 60.0411 173.34 60.0411H26.7246C11.9746 60.0351 0 48.0941 0 33.3855V26.6496C0 11.941 11.9746 0 26.7246 0Z" fill="#FFA333"/>
<path d="M32.9438 16.9239H38.7595V26.1273H43.2748V13.5859H28.4285V26.1273H32.9438V16.9239Z" fill="white"/>
<path d="M57.1579 26.1273H61.5829V13.5859H55.8093L50.1922 21.9428V13.5859H45.7432V26.1273H51.3602L57.1579 17.5062V26.1273Z" fill="white"/>
<path d="M72.4437 26.1273V16.9659H77.2239V13.5859H63.1482V16.9659H67.9284V26.1273H72.4437Z" fill="white"/>
<path d="M80.824 25.6588C81.7572 26.2051 82.8409 26.4813 84.075 26.4813C85.3092 26.4813 86.3267 26.2051 87.2598 25.6588C88.1147 25.1545 88.8312 24.4521 89.4151 23.5696L89.7402 26.1271H94.4121L93.6174 19.8414L94.4121 13.5797H89.7402L89.4212 16.1012C88.8312 15.2307 88.1147 14.5283 87.2598 14.03C86.3267 13.4837 85.2671 13.2075 84.075 13.2075C82.883 13.2075 81.7572 13.4837 80.824 14.042C79.8909 14.6003 79.1624 15.3748 78.6326 16.3714C78.1028 17.368 77.8379 18.5326 77.8379 19.8654C77.8379 21.1982 78.1028 22.3208 78.6326 23.3234C79.1624 24.326 79.8909 25.1005 80.824 25.6528V25.6588ZM82.7867 18.2024C83.0455 17.7162 83.4008 17.3379 83.8523 17.0618C84.3038 16.7856 84.8276 16.6415 85.4176 16.6415C86.0076 16.6415 86.6157 16.7796 87.1575 17.0618C87.6993 17.3379 88.181 17.7222 88.5903 18.2024C88.9997 18.6887 89.3068 19.241 89.5175 19.8714C89.3128 20.4838 89.0058 21.0361 88.5903 21.5164C88.181 22.0027 87.6993 22.3749 87.1575 22.651C86.6157 22.9272 86.0317 23.0593 85.4176 23.0593C84.8035 23.0593 84.3098 22.9272 83.8523 22.651C83.3947 22.3809 83.0395 22.0027 82.7867 21.5164C82.5278 21.0301 82.4014 20.4838 82.4014 19.8714C82.4014 19.2591 82.5278 18.6827 82.7867 18.2024Z" fill="white"/>
<path d="M101.065 21.3845H107.013V26.1273H111.504V13.5859H107.013V18.0465H101.065V13.5859H96.5674V26.1273H101.065V21.3845Z" fill="white"/>
<path d="M125.387 26.1273H129.812V13.5859H124.039L118.422 21.9428V13.5859H113.973V26.1273H119.59L125.387 17.5062V26.1273Z" fill="white"/>
<path d="M143.262 26.007C144.37 25.6948 145.357 25.2446 146.224 24.6562V21.7985C145.477 22.2368 144.641 22.579 143.725 22.8191C142.81 23.0593 141.883 23.1793 140.962 23.1793C139.951 23.1793 139.096 23.0353 138.397 22.7411C137.699 22.4469 137.169 22.0267 136.808 21.4804C136.736 21.3723 136.682 21.2582 136.621 21.1382H146.555C146.555 19.5292 146.266 18.1304 145.682 16.9417C145.104 15.753 144.279 14.8345 143.214 14.1861C142.148 13.5317 140.86 13.2075 139.349 13.2075C137.837 13.2075 136.591 13.4837 135.435 14.042C134.285 14.6003 133.376 15.3688 132.714 16.3594C132.052 17.3499 131.721 18.4966 131.721 19.7994C131.721 21.1021 132.064 22.3028 132.756 23.3054C133.449 24.308 134.388 25.0885 135.586 25.6468C136.784 26.2051 138.144 26.4813 139.674 26.4813C140.95 26.4813 142.148 26.3252 143.256 26.007H143.262ZM137.765 16.7676C138.235 16.5034 138.801 16.3714 139.463 16.3714C140.065 16.3714 140.583 16.4914 141.016 16.7256C141.45 16.9597 141.799 17.3019 142.064 17.7462C142.184 17.9563 142.287 18.1844 142.365 18.4366H136.423C136.483 18.2325 136.561 18.0343 136.669 17.8542C136.934 17.392 137.302 17.0318 137.771 16.7676H137.765Z" fill="white"/>
<path d="M38.302 33.1631H34.4369V38.5242H29.0547V42.3785H34.4369V47.7396H38.302V42.3785H43.6783V38.5242H38.302V33.1631Z" fill="white"/>
<path d="M52.3657 46.4311H56.881V37.2217H62.6967V46.4311H67.212V33.8838H52.3657V46.4311Z" fill="white"/>
<path d="M81.39 34.3457C80.1799 33.7874 78.7711 33.5112 77.1697 33.5112C75.5683 33.5112 74.1415 33.7874 72.9374 34.3457C71.7333 34.904 70.7941 35.6785 70.1198 36.6751C69.4455 37.6717 69.1084 38.8363 69.1084 40.1691C69.1084 41.5019 69.4455 42.6246 70.1198 43.6271C70.7941 44.6297 71.7333 45.4042 72.9374 45.9565C74.1415 46.5028 75.5502 46.779 77.1697 46.779C78.7892 46.779 80.1799 46.5028 81.39 45.9565C82.6001 45.4042 83.5453 44.6297 84.2196 43.6271C84.8939 42.6246 85.2311 41.4719 85.2311 40.1691C85.2311 38.8664 84.8939 37.6717 84.2196 36.6751C83.5453 35.6785 82.6001 34.904 81.39 34.3457ZM80.2582 41.9281C79.9813 42.4264 79.5779 42.8047 79.0541 43.0688C78.5303 43.333 77.9042 43.465 77.1697 43.465C76.4352 43.465 75.8031 43.333 75.2733 43.0688C74.7435 42.8047 74.3401 42.4264 74.0632 41.9281C73.7863 41.4299 73.6418 40.8355 73.6418 40.1511C73.6418 39.4667 73.7802 38.8724 74.0632 38.3801C74.3401 37.8878 74.7435 37.5096 75.2733 37.2454C75.8031 36.9813 76.4352 36.8492 77.1697 36.8492C77.9042 36.8492 78.5303 36.9813 79.0541 37.2454C79.5779 37.5096 79.9752 37.8878 80.2582 38.3801C80.5351 38.8724 80.6796 39.4667 80.6796 40.1691C80.6796 40.8715 80.5412 41.4299 80.2582 41.9281Z" fill="white"/>
<path d="M89.2346 36.7715C89.2888 37.642 89.3129 38.4224 89.3129 39.1128C89.3129 40.5477 89.1684 41.5803 88.8734 42.2107C88.5784 42.841 88.0727 43.1532 87.3502 43.1532C87.1455 43.1532 86.9108 43.1292 86.6579 43.0752C86.399 43.0271 86.1401 42.9491 85.8752 42.847V46.0349C86.3027 46.269 86.7362 46.4371 87.1757 46.5392C87.6151 46.6412 88.0847 46.6953 88.5844 46.6953C90.2762 46.6953 91.4983 46.149 92.2509 45.0563C93.0094 43.9637 93.3887 42.1866 93.3887 39.7312C93.3887 39.1729 93.3646 38.5425 93.3225 37.8401C93.3104 37.648 93.2924 37.4319 93.2743 37.2277H98.1208V46.4311H102.636V33.8838H88.9758C89.0962 34.9404 89.1805 35.901 89.2286 36.7715H89.2346Z" fill="white"/>
<path d="M116.321 37.738C115.496 37.3478 114.526 37.1557 113.413 37.1557H109.602V33.8838H105.104V46.4311H113.479C114.563 46.4311 115.514 46.239 116.333 45.8608C117.145 45.4826 117.789 44.9423 118.247 44.2458C118.705 43.5494 118.939 42.733 118.939 41.7964C118.939 40.8599 118.711 40.0674 118.247 39.371C117.783 38.6746 117.139 38.1343 116.321 37.744V37.738ZM113.967 42.877C113.659 43.1472 113.226 43.2853 112.666 43.2853H109.602V40.1875H112.666C113.226 40.1875 113.659 40.3256 113.967 40.5957C114.274 40.8659 114.43 41.2441 114.43 41.7304C114.43 42.2167 114.274 42.6129 113.967 42.883V42.877Z" fill="white"/>
<path d="M132.913 40.4754C132.461 40.2473 131.913 40.0852 131.275 39.9832C131.48 39.9351 131.678 39.8811 131.853 39.8151C132.63 39.5389 133.196 39.1607 133.539 38.6804C133.882 38.2061 134.056 37.6958 134.056 37.1555C134.056 36.4531 133.773 35.8287 133.208 35.2764C132.642 34.7241 131.853 34.2978 130.842 33.9796C129.83 33.6675 128.644 33.5054 127.296 33.5054C125.766 33.5054 124.466 33.7095 123.394 34.1177C122.323 34.526 121.498 35.0783 120.914 35.7687C120.33 36.4591 120.023 37.2215 119.981 38.056H124.297C124.37 37.5577 124.653 37.1795 125.146 36.9214C125.64 36.6632 126.296 36.5371 127.115 36.5371C127.861 36.5371 128.451 36.6452 128.879 36.8553C129.306 37.0655 129.517 37.3716 129.517 37.7679C129.517 38.1221 129.324 38.3982 128.945 38.6024C128.566 38.8065 127.976 38.9085 127.181 38.9085H125.02V41.3219H127.247C128.144 41.3219 128.795 41.412 129.21 41.5861C129.619 41.7602 129.824 42.0484 129.824 42.4446C129.824 42.8829 129.589 43.213 129.12 43.4352C128.65 43.6513 127.982 43.7654 127.115 43.7654C126.248 43.7654 125.507 43.6273 124.99 43.3451C124.466 43.069 124.165 42.6667 124.075 42.1384H119.734C119.776 43.093 120.107 43.9155 120.727 44.6119C121.347 45.3083 122.202 45.8426 123.292 46.2148C124.388 46.587 125.658 46.7731 127.115 46.7731C128.656 46.7731 129.969 46.599 131.046 46.2448C132.124 45.8906 132.949 45.4163 133.515 44.804C134.081 44.1976 134.363 43.5132 134.363 42.7508C134.363 41.7122 133.876 40.9497 132.907 40.4634L132.913 40.4754Z" fill="white"/>
<path d="M152.34 33.8834H147.668L147.349 36.4049C146.759 35.5344 146.043 34.832 145.188 34.3337C144.255 33.7874 143.195 33.5112 142.003 33.5112C140.811 33.5112 139.685 33.7874 138.752 34.3457C137.819 34.904 137.091 35.6785 136.561 36.6751C136.031 37.6717 135.766 38.8363 135.766 40.1691C135.766 41.5019 136.031 42.6246 136.561 43.6271C137.091 44.6297 137.819 45.4042 138.752 45.9565C139.685 46.5028 140.769 46.779 142.003 46.779C143.237 46.779 144.255 46.5028 145.188 45.9565C146.043 45.4522 146.759 44.7498 147.343 43.8673L147.668 46.4248H152.34L151.546 40.1391L152.34 33.8774V33.8834ZM145.092 42.9487C144.55 43.2189 143.966 43.357 143.352 43.357C142.738 43.357 142.244 43.2249 141.787 42.9487C141.329 42.6786 140.974 42.3004 140.721 41.8141C140.462 41.3278 140.336 40.7815 140.336 40.1691C140.336 39.5568 140.462 38.9804 140.721 38.5001C140.98 38.0139 141.335 37.6356 141.787 37.3595C142.238 37.0833 142.762 36.9392 143.352 36.9392C143.942 36.9392 144.55 37.0773 145.092 37.3595C145.634 37.6356 146.115 38.0199 146.525 38.5001C146.934 38.9864 147.241 39.5388 147.452 40.1691C147.247 40.7815 146.94 41.3338 146.525 41.8141C146.115 42.3004 145.634 42.6726 145.092 42.9487Z" fill="white"/>
</g>
<defs>
<clipPath id="clip0_5007_347">
<rect width="177" height="60.0351" fill="white"/>
</clipPath>
</defs>
</svg>
