<svg width="24" height="24" viewBox="0 0 24 24"  xmlns="http://www.w3.org/2000/svg">
<path fill-rule="evenodd" clip-rule="evenodd" d="M14.4188 10.1878L16.018 8.69675L15.9668 8.65089L15.2994 8.12489C14.9297 7.83351 14.784 7.59171 14.7296 7.41856C14.6822 7.26768 14.6486 7.00034 14.8532 6.53258C15.2939 5.52513 15.7751 4.27551 16.1001 3.36769L13.9275 2.71923C13.6129 3.59803 13.1482 4.80369 12.7305 5.75854C12 7.42857 12.5745 8.73421 13.8058 9.70467L14.4188 10.1878ZM14.4227 10.1985C14.4227 10.1985 14.4234 10.1972 14.4225 10.1938C14.4215 10.1902 14.4188 10.1878 14.4188 10.1878C16.018 8.69675 16.0185 8.69716 16.019 8.69757L16.0199 8.6984L16.0218 8.70007L16.0255 8.70342L16.033 8.71024L16.0483 8.72434C16.0587 8.73394 16.0693 8.74399 16.0802 8.75449C16.1018 8.77543 16.1248 8.79849 16.1487 8.82367C16.1957 8.87335 16.2495 8.93495 16.3048 9.00848C16.4085 9.14647 16.5551 9.37647 16.6405 9.68976C16.6929 9.88199 16.7225 10.1067 16.7022 10.3533C16.6922 10.4757 16.6702 10.599 16.6355 10.7213C16.6183 10.7822 16.5981 10.842 16.5752 10.9007C16.5686 10.9175 16.5618 10.9341 16.5548 10.9507C15.7752 12.8051 14.4769 15.5629 10.7022 17.1341L9.25121 17.738L7.90064 16.492C7.45226 16.0783 6.74876 15.9598 6.03145 16.3674L3.26085 18.1522C2.79165 18.4545 2.46627 18.8756 2.3421 19.2805C2.22255 19.6702 2.28961 20.0194 2.55107 20.3117C3.08408 20.9076 3.84796 21.4697 4.94613 21.7328C6.49483 22.1039 8.1271 21.8727 9.72601 21.2993C11.3246 20.7261 12.8149 19.8368 14.0241 18.9924C15.8106 17.745 19.5822 14.7715 21.3699 9.22363C22.0416 7.13917 21.643 5.47767 20.9242 4.2927C20.1775 3.06177 19.1163 2.38504 18.5468 2.22598C17.8144 2.02142 17.33 2.06681 17.0131 2.20587C16.7074 2.34005 16.3572 2.64958 16.1001 3.36769L13.9275 2.71923C14.3143 1.63902 14.9936 0.776654 16.0229 0.324932C17.032 -0.117967 18.1528 -0.0664825 19.2154 0.230309C20.4662 0.579629 21.9538 1.68256 22.9237 3.28156C23.9279 4.93702 24.4131 7.17343 23.5627 9.81268C21.5809 15.9627 17.3853 19.2728 15.4126 20.6502C14.1165 21.5552 12.4354 22.5699 10.5616 23.2418C8.68809 23.9137 6.53857 24.272 4.3659 23.7514C2.70706 23.3539 1.5525 22.4946 0.78071 21.6318C-0.0158691 20.7412 -0.14999 19.6666 0.141068 18.7177C0.422924 17.7987 1.09519 16.9932 1.94311 16.447L4.75826 14.6334C6.31579 13.7143 8.24446 13.8424 9.52527 15.024L9.75411 15.2351C12.6715 14.0208 13.6894 11.9431 14.4227 10.1985Z" />
</svg>
