<svg width="17" height="21" viewBox="0 0 17 21"  xmlns="http://www.w3.org/2000/svg">
<path d="M0.707359 0.891406C0.725796 0.697565 0.818396 0.518338 0.965827 0.391143C1.11326 0.263949 1.30412 0.19862 1.49857 0.208796C1.69302 0.218972 1.87603 0.303867 2.00938 0.445754C2.14272 0.587642 2.21611 0.775556 2.21422 0.970263V5.99912C2.21422 6.16962 2.28195 6.33313 2.4025 6.45369C2.52306 6.57425 2.68658 6.64198 2.85707 6.64198C3.02757 6.64198 3.19108 6.57425 3.31164 6.45369C3.4322 6.33313 3.49993 6.16962 3.49993 5.99912V0.85712C3.49993 0.686624 3.56766 0.52311 3.68822 0.402551C3.80878 0.281992 3.97229 0.214263 4.14279 0.214263C4.31328 0.214263 4.4768 0.281992 4.59736 0.402551C4.71791 0.52311 4.78564 0.686624 4.78564 0.85712V5.99912C4.78564 6.16962 4.85337 6.33313 4.97393 6.45369C5.09449 6.57425 5.25801 6.64198 5.4285 6.64198C5.599 6.64198 5.76251 6.57425 5.88307 6.45369C6.00363 6.33313 6.07136 6.16962 6.07136 5.99912V0.970263C6.07358 0.778122 6.14888 0.594037 6.28196 0.455426C6.41504 0.316815 6.59591 0.23408 6.7878 0.224038C6.97969 0.213996 7.1682 0.2774 7.31502 0.401364C7.46184 0.525327 7.55595 0.700546 7.57822 0.891406C7.64336 1.51026 7.99993 4.99283 7.99993 6.64283C7.99993 7.78969 7.4985 8.81998 6.70564 9.52626C6.41936 9.77998 6.28564 10.0414 6.28564 10.2608V10.884L6.2865 10.9243C6.3225 11.4377 6.71422 17.1703 6.71422 18.2143C6.71422 18.5519 6.6477 18.8863 6.51848 19.1983C6.38925 19.5103 6.19984 19.7938 5.96106 20.0325C5.72228 20.2713 5.43881 20.4607 5.12683 20.59C4.81485 20.7192 4.48047 20.7857 4.14279 20.7857C3.8051 20.7857 3.47072 20.7192 3.15874 20.59C2.84676 20.4607 2.56329 20.2713 2.32451 20.0325C2.08573 19.7938 1.89632 19.5103 1.7671 19.1983C1.63787 18.8863 1.57136 18.5519 1.57136 18.2143C1.57136 17.1703 1.96393 11.4377 1.99907 10.9243L1.99993 10.884V10.2608C1.99993 10.0423 1.86622 9.78083 1.57993 9.52626C1.17281 9.1643 0.846975 8.7202 0.62389 8.2232C0.400805 7.72621 0.285526 7.1876 0.285645 6.64283C0.285645 4.99283 0.642216 1.51026 0.707359 0.891406ZM12.2471 10.5L12.2196 10.9765C12.1794 11.6768 12.1254 12.6223 12.0722 13.6011C11.9659 15.5443 11.8571 17.6588 11.8571 18.2143C11.8571 18.5519 11.9236 18.8863 12.0528 19.1983C12.182 19.5103 12.3714 19.7938 12.6102 20.0325C12.849 20.2713 13.1325 20.4607 13.4445 20.59C13.7564 20.7192 14.0908 20.7857 14.4285 20.7857C14.7662 20.7857 15.1006 20.7192 15.4125 20.59C15.7245 20.4607 16.008 20.2713 16.2468 20.0325C16.4856 19.7938 16.675 19.5103 16.8042 19.1983C16.9334 18.8863 16.9999 18.5519 16.9999 18.2143C16.9999 17.5963 16.8645 15.2365 16.7479 13.1957L16.7445 13.1391C16.6511 11.5114 16.5714 10.1143 16.5714 9.85712V0.85712C16.5714 0.686624 16.5036 0.52311 16.3831 0.402551C16.2625 0.281992 16.099 0.214263 15.9285 0.214263H15.4999C13.9655 0.214263 12.4938 0.823827 11.4088 1.90886C10.3238 2.99389 9.71422 4.46551 9.71422 5.99998V8.99998C9.71422 9.82798 10.3862 10.5 11.2142 10.5H12.2471Z" />
</svg>
