<svg width="22" height="21" viewBox="0 0 22 21"  xmlns="http://www.w3.org/2000/svg">
<path d="M7.09713 14.7105C7.36145 14.8971 7.67727 14.9969 8.00085 14.9961C8.32442 14.9953 8.63974 14.8939 8.90313 14.706C9.17013 14.511 9.37263 14.241 9.48363 13.929L10.1541 11.8695C10.3266 11.3535 10.6161 10.884 11.0001 10.4985C11.3851 10.1141 11.8538 9.824 12.3696 9.65097L14.4561 8.97447C14.6838 8.89251 14.8894 8.75921 15.0572 8.58492C15.225 8.41064 15.3504 8.20004 15.4236 7.96947C15.4862 7.77262 15.509 7.56532 15.4908 7.35959C15.4726 7.15385 15.4137 6.95378 15.3175 6.77099C15.2214 6.58819 15.0899 6.4263 14.9307 6.29472C14.7715 6.16314 14.5878 6.06448 14.3901 6.00447L12.3276 5.33397C11.8111 5.16211 11.3417 4.87248 10.9564 4.48797C10.5711 4.10346 10.2805 3.63461 10.1076 3.11847L9.42963 1.03647C9.34114 0.788378 9.19145 0.566647 8.99443 0.391828C8.79741 0.217009 8.55945 0.0947616 8.30259 0.0364196C8.04574 -0.0219223 7.77831 -0.0144705 7.52511 0.0580842C7.2719 0.130639 7.04111 0.265948 6.85413 0.451467C6.68063 0.622526 6.54919 0.831505 6.47013 1.06197L5.78463 3.16197C5.61434 3.66507 5.33114 4.12251 4.95674 4.49926C4.58233 4.876 4.12666 5.16204 3.62463 5.33547L1.53813 6.00747C1.31136 6.09061 1.1065 6.22432 0.939124 6.39846C0.771745 6.5726 0.646238 6.78258 0.572132 7.01247C0.500062 7.24318 0.482059 7.48738 0.519515 7.72616C0.556971 7.96495 0.648883 8.19191 0.788132 8.38947C0.980132 8.65947 1.25163 8.86197 1.56363 8.96847L3.62463 9.63597C4.14374 9.80823 4.61517 10.0999 5.00101 10.4876C5.38685 10.8752 5.67632 11.3481 5.84613 11.868L6.52413 13.9545C6.63213 14.2605 6.83313 14.5245 7.09713 14.7105ZM16.3026 20.7735C16.5053 20.9179 16.7478 20.9958 16.9967 20.9964C17.2455 20.9969 17.4884 20.9201 17.6916 20.7765C17.9019 20.6297 18.0596 20.4194 18.1416 20.1765L18.5136 19.0335C18.5923 18.7956 18.7255 18.5795 18.9026 18.4024C19.0797 18.2253 19.2958 18.0921 19.5336 18.0135L20.6916 17.6355C20.9005 17.5653 21.0857 17.4383 21.2264 17.2688C21.3671 17.0992 21.4578 16.8937 21.4881 16.6755C21.5313 16.3921 21.4711 16.1027 21.3185 15.8601C21.1659 15.6175 20.9312 15.4378 20.6571 15.354L19.5111 14.9805C19.2742 14.9011 19.0588 14.768 18.8819 14.5916C18.7049 14.4151 18.5712 14.2002 18.4911 13.9635L18.1131 12.804C18.0311 12.568 17.8775 12.3635 17.6736 12.219C17.4431 12.0529 17.1608 11.9745 16.8776 11.9979C16.5944 12.0212 16.3289 12.1448 16.1286 12.3465C15.9955 12.4789 15.8953 12.6407 15.8361 12.819L15.4656 13.962C15.3891 14.1971 15.2592 14.4114 15.0862 14.588C14.9131 14.7647 14.7016 14.899 14.4681 14.9805L13.3086 15.3585C13.0701 15.4394 12.863 15.5933 12.7169 15.7985C12.5707 16.0036 12.4927 16.2496 12.4941 16.5015C12.4955 16.7533 12.576 16.9983 12.7244 17.2019C12.8727 17.4054 13.0813 17.5571 13.3206 17.6355L14.4651 18.006C14.7036 18.087 14.9211 18.2205 15.0981 18.3975C15.2766 18.576 15.4086 18.792 15.4851 19.0305L15.8646 20.1915C15.9468 20.4262 16.0999 20.6295 16.3026 20.7735Z"/>
</svg>
