<svg width="626" height="99" viewBox="0 0 626 99" fill="none" xmlns="http://www.w3.org/2000/svg">
<path d="M0.449219 47.1897C0.449219 21.6281 21.171 0.90625 46.7327 0.90625H572.089C593.479 0.90625 610.819 18.2462 610.819 39.6362V39.6362L601.156 60.8746L591.492 82.1131L589.535 83.4869C580.278 89.986 569.243 93.4732 557.932 93.4732H46.7326C21.171 93.4732 0.449219 72.7514 0.449219 47.1897V47.1897Z" fill="white"/>
<path d="M610.819 39.6362L601.156 60.8746L591.492 82.1131C603.634 92.0126 615.776 95.9109 624.051 98.0571C625.025 98.3096 625.774 97.053 625.163 96.254C614.334 82.0998 610.538 53.2095 610.819 39.6362Z" fill="white"/>
<path d="M610.819 39.6362L601.156 60.8746L591.492 82.1131C603.634 92.0126 615.776 95.9109 624.051 98.0571C625.025 98.3096 625.774 97.053 625.163 96.254C614.334 82.0998 610.538 53.2095 610.819 39.6362Z" fill="white"/>
</svg>
