<svg width="634" height="121" viewBox="0 0 634 121" fill="none" xmlns="http://www.w3.org/2000/svg">
<g filter="url(#filter0_d_5020_1657)">
<path d="M4.70459 54.1562C4.70459 24.4012 28.8258 0.279907 58.5809 0.279907H560.074C590.45 0.279907 615.074 24.9043 615.074 55.2799V56.0362L605.411 76.5485L595.748 97.0608L593.545 98.5542C584.436 104.731 573.684 108.033 562.678 108.033H58.5808C28.8258 108.033 4.70459 83.9113 4.70459 54.1562V54.1562Z" fill="white"/>
<path d="M615.074 56.0362L605.411 76.5485L595.748 97.0608C607.856 106.596 619.965 110.366 628.239 112.443C629.219 112.689 629.961 111.411 629.337 110.616C618.57 96.9087 614.794 69.1126 615.074 56.0362Z" fill="white"/>
<path d="M615.074 56.0362L605.411 76.5485L595.748 97.0608C607.856 106.596 619.965 110.366 628.239 112.443C629.219 112.689 629.961 111.411 629.337 110.616C618.57 96.9087 614.794 69.1126 615.074 56.0362Z" fill="white"/>
</g>
<defs>
<filter id="filter0_d_5020_1657" x="0.70459" y="0.279907" width="632.862" height="120.194" filterUnits="userSpaceOnUse" color-interpolation-filters="sRGB">
<feFlood flood-opacity="0" result="BackgroundImageFix"/>
<feColorMatrix in="SourceAlpha" type="matrix" values="0 0 0 0 0 0 0 0 0 0 0 0 0 0 0 0 0 0 127 0" result="hardAlpha"/>
<feOffset dy="4"/>
<feGaussianBlur stdDeviation="2"/>
<feComposite in2="hardAlpha" operator="out"/>
<feColorMatrix type="matrix" values="0 0 0 0 0 0 0 0 0 0 0 0 0 0 0 0 0 0 0.25 0"/>
<feBlend mode="normal" in2="BackgroundImageFix" result="effect1_dropShadow_5020_1657"/>
<feBlend mode="normal" in="SourceGraphic" in2="effect1_dropShadow_5020_1657" result="shape"/>
</filter>
</defs>
</svg>
