<svg width="21" height="17" viewBox="0 0 21 17"  xmlns="http://www.w3.org/2000/svg">
<path fill-rule="evenodd" clip-rule="evenodd" d="M17.0874 3.37358C14.0382 6.15246 8.68856 11.0278 8.68856 11.0278L8.38101 13.95L6.99742 9.33546C6.99742 9.33546 13.2706 5.28671 16.8038 3.00612C16.9052 2.94113 17.0404 2.96362 17.1138 3.05945C17.1888 3.15527 17.1756 3.29192 17.0874 3.37358ZM20.4772 0.243401C20.2966 0.0875842 20.0452 0.0425889 19.8201 0.126747C16.3636 1.41995 5.71536 5.45702 1.36422 7.08435C1.088 7.18768 0.90825 7.45598 0.91732 7.75012C0.927215 8.04509 1.12346 8.30089 1.40545 8.38672C3.35798 8.97666 5.91985 9.7974 5.91985 9.7974C5.91985 9.7974 7.11709 13.4512 7.74127 15.3093C7.8196 15.5426 8.00018 15.726 8.23847 15.7893C8.47594 15.8518 8.7299 15.7859 8.90718 15.6168C9.90983 14.6602 11.46 13.1812 11.46 13.1812C11.46 13.1812 14.4053 15.3635 16.075 16.5659C16.3413 16.7558 16.6835 16.8033 16.9886 16.6867C17.2936 16.5692 17.5171 16.3059 17.5855 15.9868C18.3021 12.5838 20.0402 3.97051 20.6924 0.875002C20.7419 0.641693 20.6595 0.399218 20.4772 0.243401Z" />
</svg>
