<svg width="35" height="23" viewBox="0 0 35 23" fill="none" xmlns="http://www.w3.org/2000/svg">
<path d="M20.5864 0.296387H2.05078C0.918135 0.296387 0 1.21452 0 2.34717V13.176H2.57988C3.16196 13.176 3.63125 13.6611 3.60418 14.2499C3.57875 14.8018 3.10352 15.2268 2.55104 15.2268H0V17.1914C0 18.3241 0.918135 19.2422 2.05078 19.2422H2.81641C3.28125 17.2611 5.06338 15.7812 7.18457 15.7812C9.30576 15.7812 11.0879 17.2611 11.5527 19.2422H22.6372V2.34717C22.6372 1.21452 21.7191 0.296387 20.5864 0.296387ZM15.6543 8.09893L10.5014 12.9354C10.078 13.3314 9.40898 13.2992 9.02754 12.8622L6.9125 10.4443C6.53994 10.0185 6.58301 9.37041 7.00957 8.99785C7.43545 8.62461 8.0835 8.66768 8.45605 9.09424C8.82314 9.51355 8.54205 9.19233 9.87246 10.713C13.3224 7.47494 12.2348 8.49568 14.2509 6.60391C14.6638 6.21631 15.3125 6.23682 15.7001 6.64971C16.0877 7.0626 16.0672 7.71133 15.6543 8.09893Z" fill="#FFA333"/>
<path d="M7.18467 22.7033C8.52984 22.7033 9.62031 21.6128 9.62031 20.2677C9.62031 18.9225 8.52984 17.832 7.18467 17.832C5.8395 17.832 4.74902 18.9225 4.74902 20.2677C4.74902 21.6128 5.8395 22.7033 7.18467 22.7033Z" fill="#FFA333"/>
<path d="M30.868 5.716C30.6474 4.79308 29.8224 4.14209 28.8734 4.14209H24.688V9.62861H31.8035L30.868 5.716Z" fill="#FFA333"/>
<path d="M32.9492 11.6797H24.688V17.7965C26.8604 14.5174 31.9032 15.4252 32.7988 19.2423H34.4873C34.7696 19.2423 35 19.0126 35 18.7296V13.7305C35 12.5978 34.0819 11.6797 32.9492 11.6797Z" fill="#FFA333"/>
<path d="M28.4308 22.7033C29.7759 22.7033 30.8664 21.6128 30.8664 20.2677C30.8664 18.9225 29.7759 17.832 28.4308 17.832C27.0856 17.832 25.9951 18.9225 25.9951 20.2677C25.9951 21.6128 27.0856 22.7033 28.4308 22.7033Z" fill="#FFA333"/>
</svg>
