<svg width="24" height="23" viewBox="0 0 24 23" xmlns="http://www.w3.org/2000/svg">
<path fill-rule="evenodd" clip-rule="evenodd" d="M16.6552 6.86208C16.6552 9.43306 14.571 11.5172 12.0001 11.5172C9.42909 11.5172 7.34489 9.43306 7.34489 6.86208C7.34489 4.2911 9.42909 2.2069 12.0001 2.2069C14.571 2.2069 16.6552 4.2911 16.6552 6.86208ZM18.7242 6.86208C18.7242 10.5757 15.7137 13.5862 12.0001 13.5862C8.28643 13.5862 5.27593 10.5757 5.27593 6.86208C5.27593 3.14844 8.28643 0.137939 12.0001 0.137939C15.7137 0.137939 18.7242 3.14844 18.7242 6.86208ZM4.24145 15.6552C1.95613 15.6552 0.103516 17.5078 0.103516 19.7931V22.8966H2.17248V19.7931C2.17248 18.6505 3.09879 17.7241 4.24145 17.7241H19.7587C20.9013 17.7241 21.8277 18.6505 21.8277 19.7931V22.8966H23.8966V19.7931C23.8966 17.5078 22.044 15.6552 19.7587 15.6552H4.24145Z" />
</svg>
