<svg width="20" height="12" viewBox="0 0 20 12"  xmlns="http://www.w3.org/2000/svg">
<path fill-rule="evenodd" clip-rule="evenodd" d="M19.7411 10.67C19.4647 10.1321 19.0866 9.66287 18.7056 9.19816C18.1004 8.4585 17.4325 7.7816 16.7586 7.10918C16.2296 6.5832 16.2266 6.38596 16.636 5.77481C17.1351 5.03067 17.6447 4.28951 18.1183 3.53043C18.6324 2.7056 19.1778 1.89123 19.4557 0.943866C19.6156 0.393978 19.4094 0.122023 18.8371 0.114552C18.1034 0.101103 17.3712 0.107081 16.636 0.113058C16.1907 0.11754 15.8695 0.314783 15.6872 0.739153C15.5049 1.16053 15.3136 1.57743 15.1029 1.98537C14.4723 3.20319 13.791 4.38664 12.8137 5.36986C12.6523 5.53423 12.4805 5.69113 12.2623 5.77929C11.9814 5.89286 11.7931 5.79722 11.7184 5.50285C11.687 5.37584 11.6811 5.24136 11.6811 5.11136C11.6781 4.42101 11.6781 3.73216 11.6781 3.0433C11.6781 2.29767 11.6841 1.55352 11.6751 0.809383C11.6676 0.344668 11.4943 0.120529 11.1073 0.11754C9.94623 0.102598 8.78519 0.0996092 7.62714 0.11754C7.17288 0.122023 6.96817 0.55237 7.20426 0.934901C7.24461 1.00065 7.29093 1.06191 7.34173 1.11869C7.79001 1.63272 7.96334 2.2364 7.95886 2.90882C7.9499 3.8502 7.95587 4.79159 7.95288 5.73297C7.95288 5.91826 7.95587 6.10504 7.93944 6.29033C7.8976 6.74458 7.61668 6.88206 7.24012 6.62355C7.07725 6.51297 6.9323 6.3755 6.79932 6.23205C5.97598 5.32055 5.40368 4.24917 4.87471 3.15537C4.52505 2.43663 4.22769 1.69697 3.96769 0.939383C3.84965 0.600186 3.72263 0.217656 3.29826 0.163862C2.40768 0.0532872 1.51113 0.0891494 0.616067 0.139954C0.209628 0.168345 0.0557195 0.41191 0.0960645 0.821337C0.134915 1.21582 0.239513 1.59536 0.365031 1.97042C1.18687 4.424 2.47792 6.62803 4.07378 8.64977C5.06448 9.90943 6.3092 10.8658 7.81691 11.447C8.81208 11.831 9.84013 11.9984 10.907 11.846C11.4973 11.7593 11.6781 11.5546 11.6811 10.9584C11.6841 10.3024 11.6766 9.64494 11.6841 8.98896C11.6915 8.45103 11.95 8.25827 12.473 8.39425C12.863 8.49586 13.1843 8.72298 13.4996 8.96356C14.3812 9.64345 15.0954 10.4892 15.8411 11.3051C16.2176 11.716 16.651 11.9401 17.2278 11.9058C17.8284 11.8729 18.4321 11.9013 19.0328 11.8968C19.1643 11.8968 19.2973 11.8848 19.4228 11.8579C19.7785 11.7817 19.9204 11.589 19.91 11.2318C19.904 11.0271 19.8308 10.8463 19.7411 10.67Z" />
</svg>
