<svg width="1920" height="873" viewBox="0 0 1920 873" fill="none" xmlns="http://www.w3.org/2000/svg">
<path d="M-110.047 656.221C-111.521 677.118 -99.8122 696.718 -80.7136 705.325L179.346 822.523C187.309 826.112 196.074 827.551 204.768 826.699L1462.5 703.382C1468.45 702.799 1474.46 703.287 1480.24 704.824L1923.65 822.78C1955.38 831.222 1986.5 807.299 1986.5 774.46V108.232C1986.5 70.9833 1947.23 46.813 1913.98 63.5923L1510.92 266.961C1499.42 272.762 1486.12 273.903 1473.81 270.147L767.147 54.637C761.429 52.8931 755.444 52.1889 749.477 52.5577L139.986 90.2283C131.788 90.735 123.592 89.2144 116.122 85.8011L1.58162 33.4655C-30.1594 18.9624 -66.6182 40.6136 -69.074 75.4246L-110.047 656.221Z" fill="url(#paint0_linear_5018_1628)"/>
<g opacity="0.2">
<rect x="1319.24" y="519.926" width="25.2719" height="71.1431" rx="12.636" transform="rotate(135 1319.24 519.926)" fill="#F0FFF2" fill-opacity="0.5"/>
<rect x="1353.88" y="487.468" width="25.2719" height="72.6908" rx="12.636" transform="rotate(135 1353.88 487.468)" fill="#F0FFF2" fill-opacity="0.8"/>
<rect x="1268.88" y="505.408" width="25.2922" height="72.8655" rx="12.6461" transform="rotate(-135 1268.88 505.408)" fill="#F0FFF2"/>
</g>
<g opacity="0.2">
<rect width="25.2719" height="71.1431" rx="12.636" transform="matrix(0.707107 0.707107 0.707107 -0.707107 616.677 251.927)" fill="#F0FFF2" fill-opacity="0.5"/>
<rect width="25.2719" height="72.6908" rx="12.636" transform="matrix(0.707107 0.707107 0.707107 -0.707107 582.031 219.469)" fill="#F0FFF2" fill-opacity="0.8"/>
<rect width="25.2922" height="72.8655" rx="12.6461" transform="matrix(0.707107 -0.707107 -0.707107 -0.707107 667.031 237.408)" fill="#F0FFF2"/>
</g>
<g opacity="0.2">
<rect x="1114.45" y="205.695" width="16.553" height="46.5985" rx="8.27652" transform="rotate(-135 1114.45 205.695)" fill="#F0FFF2" fill-opacity="0.5"/>
<rect x="1135.71" y="228.389" width="16.553" height="47.6123" rx="8.27652" transform="rotate(-135 1135.71 228.389)" fill="#F0FFF2" fill-opacity="0.8"/>
<rect x="1123.96" y="172.714" width="16.5663" height="47.7267" rx="8.28317" transform="rotate(-45 1123.96 172.714)" fill="#F0FFF2"/>
</g>
<g opacity="0.4">
<rect opacity="0.5" x="1702.01" y="524.312" width="41.2246" height="116.051" rx="20.6123" transform="rotate(-135 1702.01 524.312)" fill="#F0FFF2" fill-opacity="0.5"/>
<rect x="1754.96" y="580.828" width="41.2246" height="118.576" rx="20.6123" transform="rotate(-135 1754.96 580.828)" fill="#F0FFF2" fill-opacity="0.8"/>
<rect opacity="0.7" x="1725.69" y="442.173" width="41.2577" height="118.861" rx="20.6289" transform="rotate(-45 1725.69 442.173)" fill="#F0FFF2"/>
</g>
<g opacity="0.4">
<rect opacity="0.5" width="41.2246" height="116.051" rx="20.6123" transform="matrix(0.707107 -0.707107 -0.707107 -0.707107 140.903 111.312)" fill="#F0FFF2" fill-opacity="0.5"/>
<rect width="41.2246" height="118.576" rx="20.6123" transform="matrix(0.707107 -0.707107 -0.707107 -0.707107 87.958 167.828)" fill="#F0FFF2" fill-opacity="0.8"/>
<rect opacity="0.7" width="41.2577" height="118.861" rx="20.6289" transform="matrix(-0.707107 -0.707107 -0.707107 0.707107 117.221 29.1736)" fill="#F0FFF2"/>
</g>
<g opacity="0.4">
<rect opacity="0.5" width="41.2246" height="116.051" rx="20.6123" transform="matrix(0.707107 -0.707107 -0.707107 -0.707107 172.903 816.312)" fill="#F0FFF2" fill-opacity="0.5"/>
<rect width="41.2246" height="118.576" rx="20.6123" transform="matrix(0.707107 -0.707107 -0.707107 -0.707107 119.958 872.828)" fill="#F0FFF2" fill-opacity="0.8"/>
<rect opacity="0.7" width="41.2577" height="118.861" rx="20.6289" transform="matrix(-0.707107 -0.707107 -0.707107 0.707107 149.221 734.174)" fill="#F0FFF2"/>
</g>
<g opacity="0.2">
<rect x="1526.3" y="682.953" width="29.196" height="82.1896" rx="14.598" transform="rotate(135 1526.3 682.953)" fill="#F0FFF2" fill-opacity="0.5"/>
<rect x="1566.33" y="645.456" width="29.196" height="83.9777" rx="14.598" transform="rotate(135 1566.33 645.456)" fill="#F0FFF2" fill-opacity="0.8"/>
<rect x="1468.13" y="666.181" width="29.2194" height="84.1795" rx="14.6097" transform="rotate(-135 1468.13 666.181)" fill="#F0FFF2"/>
</g>
<g opacity="0.2">
<rect width="29.196" height="82.1896" rx="14.598" transform="matrix(0.707107 0.707107 0.707107 -0.707107 409.61 414.954)" fill="#F0FFF2" fill-opacity="0.5"/>
<rect width="29.196" height="83.9777" rx="14.598" transform="matrix(0.707107 0.707107 0.707107 -0.707107 369.584 377.457)" fill="#F0FFF2" fill-opacity="0.8"/>
<rect width="29.2194" height="84.1795" rx="14.6097" transform="matrix(0.707107 -0.707107 -0.707107 -0.707107 467.782 398.182)" fill="#F0FFF2"/>
</g>
<defs>
<linearGradient id="paint0_linear_5018_1628" x1="610.5" y1="539" x2="1868.5" y2="223" gradientUnits="userSpaceOnUse">
<stop stop-color="#B7E94E"/>
<stop offset="1" stop-color="#FFEE02" stop-opacity="0.5"/>
</linearGradient>
</defs>
</svg>
