<svg width="24" height="24" viewBox="0 0 24 24"  xmlns="http://www.w3.org/2000/svg">
<path fill-rule="evenodd" clip-rule="evenodd" d="M9.02494 6.50471C8.80186 6.02611 8.57879 6.01741 8.36463 6.00871C8.19509 6.00001 7.99878 6 7.80247 6C7.60617 6 7.29385 6.06962 7.02616 6.35679C6.75847 6.64395 6 7.33139 6 8.7324C6 10.1334 7.044 11.4909 7.1957 11.6823C7.33847 11.8738 9.22125 14.8411 12.1927 15.9898C14.6644 16.9383 15.1641 16.7468 15.6995 16.7033C16.2348 16.6598 17.4305 16.0159 17.6715 15.3458C17.9124 14.6845 17.9124 14.1102 17.841 13.9883C17.7696 13.8665 17.5733 13.7969 17.2788 13.6577C16.9844 13.5184 15.5478 12.8223 15.2801 12.7266C15.0124 12.6308 14.8161 12.5873 14.6197 12.8658C14.4234 13.153 13.8613 13.7969 13.6917 13.9796C13.5222 14.1711 13.3527 14.1972 13.0582 14.0493C12.7637 13.91 11.8268 13.6055 10.7114 12.6309C9.84587 11.8738 9.25694 10.9427 9.0874 10.6555C8.91786 10.3684 9.06956 10.2117 9.21233 10.0725C9.34618 9.94196 9.50679 9.74182 9.64956 9.57648C9.79233 9.41115 9.84587 9.28932 9.94403 9.09788C10.0422 8.90644 9.98864 8.7411 9.91725 8.60187C9.85479 8.48004 9.28371 7.07034 9.02494 6.50471Z"/>
<path d="M6.48712 19.3617L6.84405 19.5706C8.33421 20.432 10.0475 20.8932 11.7964 20.8932C17.1592 20.8932 21.5226 16.638 21.5226 11.4169C21.5226 8.88463 20.5143 6.50031 18.6761 4.70772C16.838 2.91513 14.4019 1.93182 11.8053 1.92312C6.4425 1.92312 2.07909 6.17834 2.07909 11.3995C2.07909 13.1921 2.59663 14.9324 3.56926 16.4466L3.80125 16.8034L2.81971 20.3015L6.48712 19.3617ZM0 23.0165L1.6597 17.1079C0.633541 15.3762 0.0981523 13.4183 0.0981523 11.4082C0.0981523 5.11671 5.34496 0 11.7964 0C14.9284 0 17.8641 1.19215 20.0681 3.34152C22.2811 5.49959 23.4946 8.36252 23.4946 11.4082C23.4946 17.6997 18.2389 22.8164 11.7964 22.8164H11.7875C9.8333 22.8164 7.9059 22.3378 6.19265 21.4241L0 23.0165Z"/>
</svg>
